<svg xmlns="http://www.w3.org/2000/svg" viewBox="0 0 996 300" width="996" height="300">
<defs><linearGradient id="champ" x1="0" y1="0" x2="1" y2="1">
<stop offset="0" stop-color="#E3CD98"/><stop offset=".6" stop-color="#B8995A"/><stop offset="1" stop-color="#8C7038"/>
</linearGradient></defs>

<g transform="translate(90 45) scale(.95)"><g>
  <rect x="20" y="10" width="7" height="44" rx="2" fill="#15181B"/>
  <path d="M21.5 54 h4 l-0.8 128 h-2.4z" fill="#15181B"/>
  <path d="M8 182 h40 a8 8 0 0 1 0 16 h-40 a6 6 0 0 1 -6 -6 v-4 a6 6 0 0 1 6 -6z" fill="#15181B"/>
  <circle cx="68" cy="52" r="42" fill="url(#champ)"/>
  <path d="M36 52 a32 32 0 0 1 32 -32" fill="none" stroke="#FFFFFF" stroke-opacity=".35" stroke-width="2"/>
</g></g>
<path d="M269.968 161.84Q269.968 164.72 270.64 166.208Q271.312 167.696 273.472 168.272Q275.632 168.848 279.952 168.848Q280.24 168.848 280.24 169.424Q280.24 170.0 279.952 170.0Q276.88 170.0 273.28 169.904Q269.68 169.808 265.456 169.808Q262.096 169.808 259.024 169.904Q255.952 170.0 253.552 170.0Q253.264 170.0 253.264 169.424Q253.264 168.848 253.552 168.848Q256.72 168.848 258.256 168.368Q259.792 167.888 260.32 166.448Q260.848 165.008 260.848 162.224V117.776Q260.848 114.99199999999999 260.32 113.6Q259.792 112.208 258.256 111.68Q256.72 111.152 253.552 111.152Q253.264 111.152 253.264 110.576Q253.264 110.0 253.552 110.0Q255.952 110.0 258.976 110.144Q262.0 110.288 265.36 110.288Q267.664 110.288 271.36 110.0Q275.056 109.71199999999999 278.512 109.71199999999999Q284.368 109.71199999999999 288.928 111.29599999999999Q293.488 112.88 296.17600000000004 116.336Q298.86400000000003 119.792 299.056 125.45599999999999Q299.152 130.448 297.328 134.096Q295.504 137.744 292.384 140.096Q289.264 142.448 285.52 143.64800000000002Q281.776 144.848 278.032 144.848Q276.976 144.848 275.776 144.752Q274.576 144.656 273.424 144.368Q273.136 144.272 273.23199999999997 143.6Q273.328 143.216 273.52 143.12Q273.616 143.12 273.712 143.12Q274.48 143.312 275.44 143.40800000000002Q276.4 143.504 277.072 143.504Q280.24 143.504 282.928 141.776Q285.616 140.048 287.296 136.496Q288.976 132.94400000000002 288.976 127.568Q288.976 122.47999999999999 287.344 118.928Q285.712 115.376 282.784 113.504Q279.856 111.632 275.632 111.632Q273.424 111.632 272.176 112.06400000000001Q270.928 112.49600000000001 270.448 113.84Q269.968 115.184 269.968 117.96799999999999ZM392.96000000000004 168.848Q393.344 168.848 393.344 169.424Q393.344 170.0 392.96000000000004 170.0Q390.08000000000004 170.0 387.05600000000004 169.808Q384.03200000000004 169.616 381.248 169.616Q378.08 169.616 375.728 169.808Q373.37600000000003 170.0 370.496 170.0Q370.112 170.0 370.112 169.424Q370.112 168.848 370.496 168.848Q374.81600000000003 168.848 375.68 167.312Q376.544 165.776 374.24 161.264L366.944 146.48H343.712L339.104 156.848Q336.608 162.704 338.96000000000004 165.776Q341.312 168.848 346.976 168.848Q347.456 168.848 347.456 169.424Q347.456 170.0 346.976 170.0Q344.096 170.0 341.696 169.808Q339.296 169.616 335.648 169.616Q332.0 169.616 329.84000000000003 169.808Q327.68 170.0 324.512 170.0Q324.128 170.0 324.128 169.424Q324.128 168.848 324.512 168.848Q327.104 168.848 328.976 167.792Q330.848 166.736 332.672 163.904Q334.496 161.072 336.704 155.984L357.344 109.424Q357.536 109.136 358.20799999999997 109.136Q358.88 109.136 358.976 109.424L382.496 156.848Q384.704 161.456 386.432 164.096Q388.16 166.736 389.696 167.792Q391.232 168.848 392.96000000000004 168.848ZM365.79200000000003 144.07999999999998 354.752 121.616 344.76800000000003 144.07999999999998ZM466.60800000000006 170.0Q465.168 170.0 461.808 166.352Q458.44800000000004 162.704 453.744 155.792Q449.232 149.456 443.85600000000005 140.816Q442.22400000000005 141.008 440.49600000000004 141.008Q439.34400000000005 141.008 438.00000000000006 140.96Q436.65600000000006 140.912 435.6 140.816V162.224Q435.6 165.008 436.08000000000004 166.448Q436.56000000000006 167.888 438.14400000000006 168.368Q439.72800000000007 168.848 442.8 168.848Q443.088 168.848 443.088 169.424Q443.088 170.0 442.8 170.0Q440.40000000000003 170.0 437.42400000000004 169.904Q434.44800000000004 169.808 430.896 169.808Q427.53600000000006 169.808 424.46400000000006 169.904Q421.39200000000005 170.0 418.992 170.0Q418.70400000000006 170.0 418.70400000000006 169.424Q418.70400000000006 168.848 418.992 168.848Q422.16 168.848 423.696 168.368Q425.232 167.888 425.808 166.448Q426.384 165.008 426.384 162.224V117.776Q426.384 114.99199999999999 425.856 113.6Q425.32800000000003 112.208 423.79200000000003 111.68Q422.25600000000003 111.152 419.088 111.152Q418.896 111.152 418.896 110.576Q418.896 110.0 419.088 110.0Q421.48800000000006 110.0 424.51200000000006 110.144Q427.53600000000006 110.288 430.896 110.288Q433.968 110.288 437.808 110.0Q441.648 109.71199999999999 444.81600000000003 109.71199999999999Q453.168 109.71199999999999 457.728 113.024Q462.288 116.336 462.288 122.096Q462.288 127.568 459.216 131.888Q456.24 136.016 451.53600000000006 138.416Q458.83200000000005 149.168 464.112 155.696Q469.58400000000006 162.704 473.85600000000005 165.776Q478.12800000000004 168.848 482.064 168.848Q482.25600000000003 168.848 482.25600000000003 169.424Q482.25600000000003 170.0 482.064 170.0ZM452.78400000000005 125.45599999999999Q452.78400000000005 119.888 451.48800000000006 116.864Q450.192 113.84 447.88800000000003 112.688Q445.58400000000006 111.536 442.51200000000006 111.536Q438.76800000000003 111.536 437.184 112.928Q435.6 114.32 435.6 117.96799999999999V138.224Q436.944 138.416 438.48 138.512Q440.016 138.608 441.16800000000006 138.608Q447.6 138.608 450.192 135.392Q452.78400000000005 132.176 452.78400000000005 125.45599999999999ZM513.5680000000001 162.224V117.776Q513.5680000000001 114.99199999999999 513.0880000000001 113.6Q512.6080000000001 112.208 511.02400000000006 111.68Q509.44000000000005 111.152 506.27200000000005 111.152Q506.08000000000004 111.152 506.08000000000004 110.576Q506.08000000000004 110.0 506.27200000000005 110.0Q508.76800000000003 110.0 511.744 110.144Q514.72 110.288 518.08 110.288Q521.7280000000001 110.288 524.7040000000001 110.144Q527.6800000000001 110.0 529.984 110.0Q530.272 110.0 530.272 110.576Q530.272 111.152 529.984 111.152Q526.912 111.152 525.376 111.72800000000001Q523.84 112.304 523.264 113.744Q522.688 115.184 522.688 117.96799999999999V138.32L541.6 119.12Q545.152 115.568 544.384 113.36Q543.616 111.152 538.72 111.152Q538.528 111.152 538.528 110.576Q538.528 110.0 538.72 110.0Q541.312 110.0 543.904 110.144Q546.4960000000001 110.288 550.72 110.288Q555.0400000000001 110.288 557.5360000000001 110.144Q560.032 110.0 562.432 110.0Q562.72 110.0 562.72 110.576Q562.72 111.152 562.432 111.152Q558.3040000000001 111.152 553.3120000000001 113.36Q548.32 115.568 544.0 119.696L531.616 132.176L545.7280000000001 150.8Q549.664 156.176 552.4480000000001 159.584Q555.2320000000001 162.992 557.056 164.95999999999998Q558.88 166.928 560.3199999999999 167.744Q561.76 168.56 563.104 168.704Q564.4480000000001 168.848 566.08 168.848Q566.368 168.848 566.368 169.424Q566.368 170.0 566.08 170.0H555.3280000000001Q554.08 170.0 553.2160000000001 170.096Q552.3520000000001 170.192 551.6800000000001 170.192Q550.336 170.192 549.424 169.712Q548.5120000000001 169.232 547.3120000000001 167.792Q546.1120000000001 166.352 544.048 163.56799999999998Q541.984 160.784 538.528 156.08L525.1840000000001 138.608L522.688 141.2V162.224Q522.688 165.008 523.216 166.448Q523.744 167.888 525.28 168.368Q526.816 168.848 529.984 168.848Q530.368 168.848 530.368 169.424Q530.368 170.0 529.984 170.0Q527.5840000000001 170.0 524.6560000000001 169.904Q521.7280000000001 169.808 518.08 169.808Q514.72 169.808 511.648 169.904Q508.576 170.0 506.17600000000004 170.0Q505.98400000000004 170.0 505.98400000000004 169.424Q505.98400000000004 168.848 506.17600000000004 168.848Q509.34400000000005 168.848 510.92800000000005 168.368Q512.5120000000001 167.888 513.0400000000001 166.448Q513.5680000000001 165.008 513.5680000000001 162.224ZM599.792 158.38400000000001V116.336Q597.296 113.648 595.376 112.49600000000001Q592.88 111.152 590.576 111.152Q590.288 111.152 590.288 110.576Q590.288 110.0 590.576 110.0Q592.4 110.0 594.3199999999999 110.096Q596.24 110.19200000000001 597.8720000000001 110.19200000000001Q600.7520000000001 110.19200000000001 603.104 110.096Q605.456 110.0 606.704 110.0Q607.952 110.0 608.528 111.104Q609.104 112.208 611.408 114.99199999999999L645.9680000000001 155.696V121.71199999999999Q645.9680000000001 116.624 644.0 113.888Q642.032 111.152 638.192 111.152Q638.0 111.152 638.0 110.576Q638.0 110.0 638.192 110.0Q640.2080000000001 110.0 642.416 110.144Q644.624 110.288 647.216 110.288Q649.712 110.288 652.1120000000001 110.144Q654.5120000000001 110.0 656.528 110.0Q656.816 110.0 656.816 110.576Q656.816 111.152 656.528 111.152Q652.688 111.152 650.624 113.888Q648.5600000000001 116.624 648.5600000000001 121.71199999999999V171.344Q648.5600000000001 171.632 648.08 171.68Q647.6 171.728 647.408 171.632L602.384 119.21600000000001V158.38400000000001Q602.384 163.472 604.4000000000001 166.16000000000003Q606.416 168.848 610.1600000000001 168.848Q610.448 168.848 610.448 169.424Q610.448 170.0 610.1600000000001 170.0Q608.144 170.0 605.984 169.904Q603.8240000000001 169.808 601.2320000000001 169.808Q598.448 169.808 595.904 169.904Q593.36 170.0 591.152 170.0Q590.864 170.0 590.864 169.424Q590.864 168.848 591.152 168.848Q595.376 168.848 597.5840000000001 166.16000000000003Q599.792 163.472 599.792 158.38400000000001ZM748.32 168.848Q748.7040000000001 168.848 748.7040000000001 169.424Q748.7040000000001 170.0 748.32 170.0Q745.44 170.0 742.416 169.808Q739.392 169.616 736.6080000000001 169.616Q733.44 169.616 731.0880000000001 169.808Q728.7360000000001 170.0 725.8560000000001 170.0Q725.4720000000001 170.0 725.4720000000001 169.424Q725.4720000000001 168.848 725.8560000000001 168.848Q730.176 168.848 731.0400000000001 167.312Q731.9040000000001 165.776 729.6000000000001 161.264L722.3040000000001 146.48H699.0720000000001L694.464 156.848Q691.9680000000001 162.704 694.32 165.776Q696.672 168.848 702.3360000000001 168.848Q702.816 168.848 702.816 169.424Q702.816 170.0 702.3360000000001 170.0Q699.4560000000001 170.0 697.056 169.808Q694.6560000000001 169.616 691.008 169.616Q687.3600000000001 169.616 685.2 169.808Q683.0400000000001 170.0 679.8720000000001 170.0Q679.488 170.0 679.488 169.424Q679.488 168.848 679.8720000000001 168.848Q682.464 168.848 684.336 167.792Q686.2080000000001 166.736 688.0320000000002 163.904Q689.8560000000001 161.072 692.0640000000001 155.984L712.7040000000001 109.424Q712.8960000000001 109.136 713.5680000000001 109.136Q714.2400000000001 109.136 714.3360000000001 109.424L737.8560000000001 156.848Q740.0640000000001 161.456 741.7920000000001 164.096Q743.5200000000001 166.736 745.056 167.792Q746.5920000000001 168.848 748.32 168.848ZM721.152 144.07999999999998 710.1120000000001 121.616 700.128 144.07999999999998ZM821.9680000000001 170.0Q820.528 170.0 817.168 166.352Q813.808 162.704 809.104 155.792Q804.5920000000001 149.456 799.216 140.816Q797.5840000000001 141.008 795.856 141.008Q794.7040000000001 141.008 793.3600000000001 140.96Q792.0160000000001 140.912 790.96 140.816V162.224Q790.96 165.008 791.44 166.448Q791.9200000000001 167.888 793.5040000000001 168.368Q795.0880000000001 168.848 798.1600000000001 168.848Q798.4480000000001 168.848 798.4480000000001 169.424Q798.4480000000001 170.0 798.1600000000001 170.0Q795.7600000000001 170.0 792.7840000000001 169.904Q789.808 169.808 786.2560000000001 169.808Q782.8960000000001 169.808 779.8240000000001 169.904Q776.7520000000001 170.0 774.3520000000001 170.0Q774.0640000000001 170.0 774.0640000000001 169.424Q774.0640000000001 168.848 774.3520000000001 168.848Q777.5200000000001 168.848 779.056 168.368Q780.5920000000001 167.888 781.1680000000001 166.448Q781.744 165.008 781.744 162.224V117.776Q781.744 114.99199999999999 781.2160000000001 113.6Q780.6880000000001 112.208 779.152 111.68Q777.6160000000001 111.152 774.4480000000001 111.152Q774.2560000000001 111.152 774.2560000000001 110.576Q774.2560000000001 110.0 774.4480000000001 110.0Q776.8480000000001 110.0 779.8720000000001 110.144Q782.8960000000001 110.288 786.2560000000001 110.288Q789.3280000000001 110.288 793.1680000000001 110.0Q797.008 109.71199999999999 800.176 109.71199999999999Q808.528 109.71199999999999 813.088 113.024Q817.648 116.336 817.648 122.096Q817.648 127.568 814.576 131.888Q811.6 136.016 806.8960000000001 138.416Q814.192 149.168 819.4720000000001 155.696Q824.9440000000001 162.704 829.2160000000001 165.776Q833.488 168.848 837.4240000000001 168.848Q837.6160000000001 168.848 837.6160000000001 169.424Q837.6160000000001 170.0 837.4240000000001 170.0ZM808.144 125.45599999999999Q808.144 119.888 806.848 116.864Q805.552 113.84 803.248 112.688Q800.9440000000001 111.536 797.8720000000001 111.536Q794.128 111.536 792.5440000000001 112.928Q790.96 114.32 790.96 117.96799999999999V138.224Q792.3040000000001 138.416 793.8400000000001 138.512Q795.3760000000001 138.608 796.528 138.608Q802.96 138.608 805.552 135.392Q808.144 132.176 808.144 125.45599999999999ZM926.72 168.848Q927.104 168.848 927.104 169.424Q927.104 170.0 926.72 170.0Q923.84 170.0 920.816 169.808Q917.792 169.616 915.008 169.616Q911.84 169.616 909.488 169.808Q907.1360000000001 170.0 904.2560000000001 170.0Q903.8720000000001 170.0 903.8720000000001 169.424Q903.8720000000001 168.848 904.2560000000001 168.848Q908.576 168.848 909.44 167.312Q910.3040000000001 165.776 908.0 161.264L900.7040000000001 146.48H877.4720000000001L872.864 156.848Q870.368 162.704 872.72 165.776Q875.072 168.848 880.7360000000001 168.848Q881.216 168.848 881.216 169.424Q881.216 170.0 880.7360000000001 170.0Q877.8560000000001 170.0 875.4560000000001 169.808Q873.056 169.616 869.4080000000001 169.616Q865.7600000000001 169.616 863.6000000000001 169.808Q861.44 170.0 858.272 170.0Q857.888 170.0 857.888 169.424Q857.888 168.848 858.272 168.848Q860.864 168.848 862.7360000000001 167.792Q864.6080000000001 166.736 866.432 163.904Q868.2560000000001 161.072 870.464 155.984L891.104 109.424Q891.296 109.136 891.9680000000001 109.136Q892.6400000000001 109.136 892.7360000000001 109.424L916.2560000000001 156.848Q918.464 161.456 920.192 164.096Q921.9200000000001 166.736 923.4560000000001 167.792Q924.9920000000001 168.848 926.72 168.848ZM899.552 144.07999999999998 888.5120000000001 121.616 878.528 144.07999999999998Z" fill="#15181B"/>
<path d="M260.65625 218.392578125Q261.6875 218.263671875 262.6650390625 218.11328125Q263.642578125 217.962890625 264.544921875 217.791015625V208.359375Q264.544921875 207.693359375 263.9326171875 207.2744140625Q263.3203125 206.85546875 261.90234375 206.51171875L262.224609375 205.716796875Q262.76171875 205.78125 263.3955078125 205.8779296875Q264.029296875 205.974609375 264.65234375 206.0927734375Q265.275390625 206.2109375 265.833984375 206.318359375Q266.392578125 206.42578125 266.80078125 206.490234375Q266.7578125 206.68359375 266.71484375 206.962890625Q266.671875 207.2421875 266.6396484375 207.5322265625Q266.607421875 207.822265625 266.5859375 208.05859375Q266.564453125 208.294921875 266.564453125 208.40234375V214.33203125Q267.015625 214.310546875 267.5634765625 214.2568359375Q268.111328125 214.203125 268.6806640625 214.138671875Q269.25 214.07421875 269.7978515625 213.9990234375Q270.345703125 213.923828125 270.83984375 213.837890625L270.646484375 215.578125Q270.259765625 215.556640625 269.744140625 215.556640625Q269.228515625 215.556640625 268.6806640625 215.556640625Q268.1328125 215.556640625 267.57421875 215.556640625Q267.015625 215.556640625 266.564453125 215.556640625V220.3046875Q266.564453125 220.970703125 266.54296875 221.8408203125Q266.521484375 222.7109375 266.4677734375 223.5810546875Q266.4140625 224.451171875 266.349609375 225.2353515625Q266.28515625 226.01953125 266.220703125 226.4921875L264.73828125 226.685546875Q264.6953125 226.341796875 264.6630859375 225.76171875Q264.630859375 225.181640625 264.5986328125 224.5263671875Q264.56640625 223.87109375 264.5556640625 223.1728515625Q264.544921875 222.474609375 264.544921875 221.8515625V218.71484375Q262.009765625 219.294921875 259.5498046875 219.6494140625Q257.08984375 220.00390625 255.0703125 220.17578125Q254.833984375 220.197265625 254.404296875 220.2294921875Q253.974609375 220.26171875 253.4912109375 220.3154296875Q253.0078125 220.369140625 252.5244140625 220.4228515625Q252.041015625 220.4765625 251.67578125 220.541015625L250.623046875 218.71484375Q250.966796875 218.779296875 251.439453125 218.8330078125Q251.912109375 218.88671875 252.3955078125 218.9404296875Q252.87890625 218.994140625 253.330078125 219.015625Q253.78125 219.037109375 254.060546875 219.015625Q254.16796875 219.015625 254.25390625 219.015625Q254.33984375 219.015625 254.42578125 218.994140625L254.08203125 214.181640625Q254.0390625 213.55859375 253.78125 213.171875Q253.5234375 212.78515625 252.62109375 212.69921875L252.771484375 211.947265625Q253.39453125 211.947265625 254.3291015625 212.0009765625Q255.263671875 212.0546875 256.015625 212.162109375Q255.908203125 212.548828125 255.9189453125 213.1396484375Q255.9296875 213.73046875 255.97265625 214.138671875L256.251953125 218.865234375Q257.583984375 218.7578125 258.8515625 218.607421875L259.044921875 213.7734375Q259.06640625 213.4296875 259.0126953125 213.1826171875Q258.958984375 212.935546875 258.7978515625 212.763671875Q258.63671875 212.591796875 258.3359375 212.462890625Q258.03515625 212.333984375 257.541015625 212.2265625L257.77734375 211.49609375Q258.421875 211.560546875 259.345703125 211.6572265625Q260.26953125 211.75390625 261.279296875 211.96875Q261.107421875 212.52734375 261.0107421875 213.0537109375Q260.9140625 213.580078125 260.892578125 213.837890625ZM262.76171875 210.765625Q261.880859375 210.72265625 260.7744140625 210.744140625Q259.66796875 210.765625 258.572265625 210.8193359375Q257.4765625 210.873046875 256.509765625 210.9375Q255.54296875 211.001953125 254.962890625 211.0234375Q254.705078125 211.044921875 254.275390625 211.0771484375Q253.845703125 211.109375 253.373046875 211.15234375Q252.900390625 211.1953125 252.4599609375 211.23828125Q252.01953125 211.28125 251.740234375 211.32421875L250.98828125 209.541015625Q251.2890625 209.60546875 251.76171875 209.669921875Q252.234375 209.734375 252.728515625 209.7880859375Q253.22265625 209.841796875 253.7060546875 209.8740234375Q254.189453125 209.90625 254.51171875 209.90625Q255.263671875 209.90625 256.2734375 209.841796875Q257.283203125 209.77734375 258.421875 209.6806640625Q259.560546875 209.583984375 260.7744140625 209.4443359375Q261.98828125 209.3046875 263.169921875 209.1328125ZM290.267578125 221.59375Q290.58984375 220.283203125 290.869140625 218.71484375Q291.1484375 217.146484375 291.384765625 215.53515625Q290.439453125 215.6640625 289.4404296875 215.8037109375Q288.44140625 215.943359375 287.49609375 216.05078125Q286.55078125 216.158203125 285.7236328125 216.244140625Q284.896484375 216.330078125 284.31640625 216.373046875Q283.994140625 216.39453125 283.521484375 216.4375Q283.048828125 216.48046875 282.533203125 216.544921875Q282.017578125 216.609375 281.4912109375 216.6630859375Q280.96484375 216.716796875 280.556640625 216.78125L279.6328125 215.041015625Q280.041015625 215.083984375 280.53515625 215.1376953125Q281.029296875 215.19140625 281.5234375 215.2236328125Q282.017578125 215.255859375 282.46875 215.27734375Q282.919921875 215.298828125 283.2421875 215.27734375Q284.080078125 215.255859375 285.08984375 215.2021484375Q286.099609375 215.1484375 287.1953125 215.0517578125Q288.291015625 214.955078125 289.3974609375 214.8369140625Q290.50390625 214.71875 291.513671875 214.58984375Q291.70703125 213.236328125 291.814453125 212.01171875Q291.921875 210.787109375 291.96484375 209.841796875Q291.169921875 209.841796875 290.181640625 209.8525390625Q289.193359375 209.86328125 288.205078125 209.8955078125Q287.216796875 209.927734375 286.3037109375 209.9599609375Q285.390625 209.9921875 284.74609375 210.03515625Q284.423828125 210.056640625 283.9619140625 210.0888671875Q283.5 210.12109375 282.984375 210.1640625Q282.46875 210.20703125 281.9423828125 210.2822265625Q281.416015625 210.357421875 280.986328125 210.443359375L280.0625 208.6171875Q280.470703125 208.66015625 280.96484375 208.724609375Q281.458984375 208.7890625 281.9423828125 208.83203125Q282.42578125 208.875 282.876953125 208.9072265625Q283.328125 208.939453125 283.671875 208.939453125Q284.83203125 208.939453125 286.2177734375 208.9072265625Q287.603515625 208.875 289.0 208.810546875Q290.396484375 208.74609375 291.6962890625 208.638671875Q292.99609375 208.53125 293.962890625 208.380859375L294.521484375 208.939453125Q294.328125 210.357421875 294.048828125 211.990234375Q293.76953125 213.623046875 293.42578125 215.2880859375Q293.08203125 216.953125 292.65234375 218.5537109375Q292.22265625 220.154296875 291.75 221.529296875Q293.189453125 221.46484375 294.671875 221.3251953125Q296.154296875 221.185546875 297.314453125 221.013671875L297.056640625 222.775390625Q296.197265625 222.732421875 294.822265625 222.7109375Q293.447265625 222.689453125 292.0078125 222.66796875Q291.40625 222.66796875 290.546875 222.6787109375Q289.6875 222.689453125 288.6884765625 222.7216796875Q287.689453125 222.75390625 286.6474609375 222.7861328125Q285.60546875 222.818359375 284.66015625 222.8505859375Q283.71484375 222.8828125 282.9521484375 222.92578125Q282.189453125 222.96875 281.759765625 222.990234375Q280.943359375 223.033203125 280.01953125 223.1083984375Q279.095703125 223.18359375 278.30078125 223.291015625L277.61328125 221.421875Q278.580078125 221.529296875 279.6650390625 221.6044921875Q280.75 221.6796875 281.73828125 221.72265625Q282.3828125 221.744140625 283.435546875 221.7333984375Q284.48828125 221.72265625 285.6806640625 221.701171875Q286.873046875 221.6796875 288.0869140625 221.6474609375Q289.30078125 221.615234375 290.267578125 221.59375ZM318.310546875 208.359375Q318.310546875 207.693359375 317.6982421875 207.2744140625Q317.0859375 206.85546875 315.66796875 206.51171875L315.990234375 205.716796875Q316.52734375 205.78125 317.1611328125 205.8779296875Q317.794921875 205.974609375 318.41796875 206.0927734375Q319.041015625 206.2109375 319.599609375 206.318359375Q320.158203125 206.42578125 320.56640625 206.490234375Q320.5234375 206.68359375 320.48046875 206.962890625Q320.4375 207.2421875 320.4052734375 207.5322265625Q320.373046875 207.822265625 320.3515625 208.05859375Q320.330078125 208.294921875 320.330078125 208.40234375V214.41796875Q321.25390625 214.33203125 322.4462890625 214.203125Q323.638671875 214.07421875 324.626953125 213.90234375L324.390625 215.642578125Q324.00390625 215.62109375 323.4990234375 215.62109375Q322.994140625 215.62109375 322.4462890625 215.62109375Q321.8984375 215.62109375 321.33984375 215.62109375Q320.78125 215.62109375 320.330078125 215.62109375V220.3046875Q320.330078125 220.970703125 320.30859375 221.8408203125Q320.287109375 222.7109375 320.244140625 223.5810546875Q320.201171875 224.451171875 320.13671875 225.2353515625Q320.072265625 226.01953125 319.986328125 226.4921875L318.50390625 226.685546875Q318.4609375 226.341796875 318.4287109375 225.76171875Q318.396484375 225.181640625 318.3642578125 224.5263671875Q318.33203125 223.87109375 318.3212890625 223.1728515625Q318.310546875 222.474609375 318.310546875 221.8515625V217.3828125Q317.34375 217.76953125 316.1513671875 218.1669921875Q314.958984375 218.564453125 313.7021484375 218.9296875Q312.4453125 219.294921875 311.2314453125 219.5849609375Q310.017578125 219.875 309.029296875 220.025390625Q307.890625 220.197265625 307.4072265625 219.7568359375Q306.923828125 219.31640625 306.923828125 218.28515625V211.732421875Q306.923828125 211.388671875 306.8486328125 211.1630859375Q306.7734375 210.9375 306.537109375 210.765625Q306.30078125 210.59375 305.8818359375 210.46484375Q305.462890625 210.3359375 304.75390625 210.20703125L305.033203125 209.412109375Q306.107421875 209.455078125 307.2353515625 209.5947265625Q308.36328125 209.734375 309.201171875 209.884765625Q309.158203125 210.078125 309.115234375 210.357421875Q309.072265625 210.63671875 309.0400390625 210.916015625Q309.0078125 211.1953125 308.986328125 211.431640625Q308.96484375 211.66796875 308.96484375 211.775390625V217.833984375Q308.96484375 218.19921875 309.0830078125 218.3388671875Q309.201171875 218.478515625 309.416015625 218.45703125Q310.146484375 218.4140625 311.2529296875 218.220703125Q312.359375 218.02734375 313.60546875 217.748046875Q314.8515625 217.46875 316.0869140625 217.125Q317.322265625 216.78125 318.310546875 216.458984375ZM340.05859375 210.20703125Q339.693359375 210.185546875 339.2314453125 210.1962890625Q338.76953125 210.20703125 338.2646484375 210.228515625Q337.759765625 210.25 337.265625 210.29296875Q336.771484375 210.3359375 336.384765625 210.357421875Q336.169921875 210.37890625 335.7939453125 210.400390625Q335.41796875 210.421875 334.9775390625 210.46484375Q334.537109375 210.5078125 334.0751953125 210.5615234375Q333.61328125 210.615234375 333.2265625 210.6796875L332.216796875 208.982421875Q332.453125 209.025390625 332.8720703125 209.08984375Q333.291015625 209.154296875 333.7529296875 209.197265625Q334.21484375 209.240234375 334.6767578125 209.2724609375Q335.138671875 209.3046875 335.482421875 209.3046875Q336.0625 209.3046875 336.900390625 209.2939453125Q337.73828125 209.283203125 338.68359375 209.2509765625Q339.62890625 209.21875 340.6171875 209.154296875Q341.60546875 209.08984375 342.486328125 209.00390625Q342.443359375 209.1328125 342.400390625 209.3583984375Q342.357421875 209.583984375 342.3037109375 209.8310546875Q342.25 210.078125 342.1962890625 210.29296875Q342.142578125 210.5078125 342.12109375 210.615234375L341.669921875 214.009765625Q341.884765625 213.966796875 342.0888671875 213.9560546875Q342.29296875 213.9453125 342.46484375 213.923828125L342.314453125 215.27734375Q341.068359375 215.212890625 340.080078125 215.2021484375Q339.091796875 215.19140625 338.296875 215.2236328125Q337.501953125 215.255859375 336.8681640625 215.298828125Q336.234375 215.341796875 335.697265625 215.36328125Q335.697265625 215.53515625 335.67578125 215.70703125Q335.654296875 215.87890625 335.654296875 216.05078125V218.97265625Q335.654296875 219.2734375 335.826171875 219.4345703125Q335.998046875 219.595703125 336.234375 219.57421875Q337.0078125 219.53125 338.103515625 219.380859375Q339.19921875 219.23046875 340.4345703125 218.994140625Q341.669921875 218.7578125 342.958984375 218.4462890625Q344.248046875 218.134765625 345.408203125 217.76953125V208.359375Q345.408203125 207.693359375 344.7958984375 207.2744140625Q344.18359375 206.85546875 342.765625 206.51171875L343.109375 205.716796875Q343.646484375 205.78125 344.26953125 205.8779296875Q344.892578125 205.974609375 345.515625 206.0927734375Q346.138671875 206.2109375 346.7080078125 206.318359375Q347.27734375 206.42578125 347.685546875 206.490234375Q347.642578125 206.68359375 347.5888671875 206.962890625Q347.53515625 207.2421875 347.5029296875 207.5322265625Q347.470703125 207.822265625 347.44921875 208.05859375Q347.427734375 208.294921875 347.427734375 208.40234375V214.1171875Q347.900390625 214.095703125 348.4482421875 214.0419921875Q348.99609375 213.98828125 349.5654296875 213.923828125Q350.134765625 213.859375 350.693359375 213.7841796875Q351.251953125 213.708984375 351.74609375 213.623046875L351.53125 215.36328125Q351.14453125 215.341796875 350.62890625 215.341796875Q350.11328125 215.341796875 349.5546875 215.341796875Q348.99609375 215.341796875 348.4375 215.341796875Q347.87890625 215.341796875 347.427734375 215.341796875V220.3046875Q347.427734375 220.970703125 347.3955078125 221.8408203125Q347.36328125 222.7109375 347.3203125 223.5810546875Q347.27734375 224.451171875 347.212890625 225.2353515625Q347.1484375 226.01953125 347.083984375 226.4921875L345.6015625 226.685546875Q345.55859375 226.341796875 345.5263671875 225.76171875Q345.494140625 225.181640625 345.4619140625 224.5263671875Q345.4296875 223.87109375 345.4189453125 223.1728515625Q345.408203125 222.474609375 345.408203125 221.8515625V218.693359375Q344.3125 219.080078125 343.001953125 219.4560546875Q341.69140625 219.83203125 340.3916015625 220.1435546875Q339.091796875 220.455078125 337.8994140625 220.69140625Q336.70703125 220.927734375 335.84765625 221.03515625Q334.623046875 221.1640625 334.1396484375 220.712890625Q333.65625 220.26171875 333.65625 219.23046875V216.39453125Q333.65625 216.0078125 333.6025390625 215.75Q333.548828125 215.4921875 333.3876953125 215.3203125Q333.2265625 215.1484375 332.904296875 215.01953125Q332.58203125 214.890625 332.06640625 214.740234375L332.431640625 214.052734375Q334.515625 214.2890625 336.36328125 214.267578125Q338.2109375 214.24609375 339.865234375 214.138671875Z" fill="#6E6A62"/>
<rect x="371.6" y="215.0" width="299.1" height="1.00" fill="#B8995A"/>
<path d="M692.3050000000001 222.0V211.5H696.4Q697.78 211.5 698.755 211.935Q699.73 212.37 700.255 213.195Q700.78 214.02 700.78 215.16000000000003Q700.78 216.3 700.255 217.1175Q699.73 217.935 698.755 218.3775Q697.78 218.82 696.4 218.82H693.8050000000001V222.0ZM693.8050000000001 217.515H696.355Q697.7950000000001 217.515 698.5375 216.89999999999998Q699.28 216.285 699.28 215.16Q699.28 214.035 698.5375 213.42000000000002Q697.7950000000001 212.805 696.355 212.805H693.8050000000001ZM708.0450000000001 222.0 712.8000000000001 211.5H714.2850000000001L719.0550000000001 222.0H717.48L716.325 219.375H710.745L709.59 222.0ZM715.8000000000001 218.175 713.5350000000001 213.03 711.2700000000001 218.175ZM727.1150000000001 222.0V211.5H731.21Q733.2500000000001 211.5 734.4200000000001 212.4675Q735.59 213.435 735.59 215.16Q735.59 216.3 735.065 217.1175Q734.5400000000001 217.935 733.565 218.37Q733.4300000000001 218.43 733.2800000000001 218.49L735.7700000000001 222.0H734.1350000000001L731.8700000000001 218.775Q731.5550000000001 218.805 731.21 218.805H728.6150000000001V222.0ZM728.6150000000001 217.53H731.1650000000001Q732.6050000000001 217.53 733.3475000000001 216.9075Q734.09 216.285 734.09 215.16Q734.09 214.035 733.3475000000001 213.42000000000002Q732.6050000000001 212.805 731.1650000000001 212.805H728.6150000000001ZM744.5200000000001 222.0V211.5H746.0200000000001V217.365L751.72 211.5H753.4300000000001L748.945 216.225L753.715 222.0H751.96L747.94 217.335L746.0200000000001 219.285V222.0ZM777.08 222.12Q775.865 222.12 774.845 221.7225Q773.8249999999999 221.325 773.0749999999999 220.5975Q772.3249999999999 219.87 771.905 218.89499999999998Q771.485 217.92 771.485 216.75Q771.485 215.58 771.905 214.60500000000002Q772.3249999999999 213.63 773.0825 212.9025Q773.84 212.175 774.86 211.7775Q775.88 211.38 777.11 211.38Q778.355 211.38 779.39 211.785Q780.425 212.19 781.145 213.0L780.215 213.93Q779.5699999999999 213.3 778.8125 213.0075Q778.055 212.715 777.17 212.715Q776.27 212.715 775.4975 213.015Q774.725 213.315 774.1625 213.85500000000002Q773.6 214.395 773.2925 215.1375Q772.985 215.88 772.985 216.75Q772.985 217.605 773.2925 218.3475Q773.6 219.09 774.1625 219.6375Q774.725 220.185 775.49 220.485Q776.255 220.785 777.155 220.785Q777.995 220.785 778.775 220.515Q779.21 220.365 779.615 220.11V216.69H781.055V220.785Q780.275 221.445 779.2325 221.7825Q778.1899999999999 222.12 777.08 222.12ZM795.1600000000001 222.12Q793.96 222.12 792.9325 221.715Q791.905 221.31 791.155 220.58249999999998Q790.405 219.855 789.985 218.88Q789.565 217.905 789.565 216.75Q789.565 215.595 789.985 214.62Q790.405 213.645 791.155 212.91750000000002Q791.905 212.19 792.925 211.785Q793.945 211.38 795.1600000000001 211.38Q796.36 211.38 797.3725 211.7775Q798.385 212.175 799.1424999999999 212.9025Q799.9 213.63 800.3125 214.60500000000002Q800.725 215.58 800.725 216.75Q800.725 217.92 800.3125 218.89499999999998Q799.9 219.87 799.1424999999999 220.5975Q798.385 221.325 797.3725 221.7225Q796.36 222.12 795.1600000000001 222.12ZM795.1600000000001 220.785Q796.03 220.785 796.7725 220.485Q797.515 220.185 798.0625 219.6375Q798.61 219.09 798.9175 218.35500000000002Q799.225 217.62 799.225 216.75Q799.225 215.88 798.9175 215.14499999999998Q798.61 214.41 798.0625 213.8625Q797.515 213.315 796.7725 213.015Q796.03 212.715 795.1600000000001 212.715Q794.275 212.715 793.5325 213.015Q792.7900000000001 213.315 792.2350000000001 213.8625Q791.6800000000001 214.41 791.3725000000001 215.14499999999998Q791.065 215.88 791.065 216.75Q791.065 217.62 791.3725000000001 218.35500000000002Q791.6800000000001 219.09 792.2350000000001 219.6375Q792.7900000000001 220.185 793.5325 220.485Q794.275 220.785 795.1600000000001 220.785ZM809.5200000000001 222.0V211.5H811.0200000000001V220.695H816.705V222.0ZM824.9300000000001 222.0V211.5H832.34V212.805H826.4300000000001V216.465H831.695V217.755H826.4300000000001V222.0ZM854.55 222.12Q853.3499999999999 222.12 852.2549999999999 221.7525Q851.16 221.385 850.53 220.8L851.0849999999999 219.63Q851.685 220.155 852.615 220.5Q853.545 220.845 854.55 220.845Q855.4649999999999 220.845 856.035 220.635Q856.605 220.425 856.875 220.0575Q857.145 219.69 857.145 219.225Q857.145 218.685 856.7925 218.35500000000002Q856.4399999999999 218.025 855.8774999999999 217.8225Q855.3149999999999 217.62 854.6399999999999 217.47Q853.9649999999999 217.32 853.2824999999999 217.1175Q852.5999999999999 216.915 852.0374999999999 216.6Q851.4749999999999 216.285 851.1299999999999 215.7525Q850.785 215.22 850.785 214.38Q850.785 213.57 851.2125 212.8875Q851.64 212.205 852.5325 211.79250000000002Q853.425 211.38 854.805 211.38Q855.7199999999999 211.38 856.6199999999999 211.62Q857.52 211.86 858.18 212.31L857.685 213.51Q857.01 213.06 856.26 212.85750000000002Q855.51 212.655 854.805 212.655Q853.92 212.655 853.3499999999999 212.88Q852.78 213.105 852.5174999999999 213.48Q852.255 213.855 852.255 214.32Q852.255 214.875 852.6075 215.20499999999998Q852.9599999999999 215.535 853.5224999999999 215.73000000000002Q854.0849999999999 215.925 854.76 216.0825Q855.435 216.24 856.1175 216.435Q856.8 216.63 857.3625 216.945Q857.925 217.26 858.27 217.785Q858.615 218.31 858.615 219.135Q858.615 219.93 858.1800000000001 220.6125Q857.745 221.295 856.8375 221.70749999999998Q855.93 222.12 854.55 222.12ZM874.835 222.0V217.32H868.8050000000001V222.0H867.3050000000001V211.5H868.8050000000001V216.015H874.835V211.5H876.335V222.0ZM884.395 222.0 889.15 211.5H890.635L895.405 222.0H893.8299999999999L892.675 219.375H887.0949999999999L885.9399999999999 222.0ZM892.15 218.175 889.885 213.03 887.62 218.175ZM903.465 222.0V211.5H910.875V212.805H904.965V216.465H910.23V217.755H904.965V222.0ZM921.5749999999999 222.0V212.805H917.9749999999999V211.5H926.66V212.805H923.06V222.0Z" fill="#6E6A62"/>
</svg>
